<svg width="24" height="24" viewBox="0 0 24 24" fill="none" xmlns="http://www.w3.org/2000/svg">
<path fill-rule="evenodd" clip-rule="evenodd" d="M12.6484 1.98549C12.9423 1.91359 13.2518 2.02796 13.4192 2.2697L13.6357 2.58055H13.7481C14.0656 2.58055 14.3406 2.78064 14.4321 3.07887L14.4712 3.20445C14.6342 3.2391 14.7797 3.32883 14.8824 3.45781C14.9469 3.47003 15.009 3.49106 15.0684 3.5207L15.3552 3.66111C15.4798 3.72319 15.5804 3.81573 15.6492 3.92829L15.8852 3.87261C16.0934 3.82134 16.3213 3.87021 16.494 4.0032C16.6675 4.13739 16.7669 4.33828 16.7669 4.55439V4.80515L17.2518 5.12741C17.3616 5.12121 17.4758 5.14083 17.5793 5.1857L17.6571 5.21875L17.7561 5.17889C17.9094 5.1184 18.0778 5.11019 18.2317 5.15545L18.62 5.26962C18.7566 5.30988 18.8767 5.38819 18.9669 5.49635L19.2474 5.83223L19.6202 5.79477C19.77 5.78236 19.9068 5.8094 20.0299 5.87389L20.2569 5.99386L20.5877 5.99967C20.7202 6.00247 20.8484 6.04053 20.9588 6.10983L21.2473 6.28889C21.5598 6.48457 21.6693 6.88835 21.4968 7.20861L21.1858 7.78724L21.1699 7.96109C21.1644 8.01757 21.1532 8.06945 21.1356 8.12072L20.9133 8.75083L20.9306 9.79553C20.9349 10.0074 20.8416 10.2079 20.6744 10.3449L20.2669 10.6782C20.1957 10.7363 20.1132 10.7801 20.0248 10.8078L19.3252 11.6927C19.5649 11.7521 19.7639 11.9306 19.8368 12.1748L19.9129 12.4305L20.0103 12.5507L20.239 12.885C20.4041 13.1289 20.3976 13.4502 20.223 13.6861L20.4931 14.0026C20.6083 14.1392 20.6669 14.3104 20.6585 14.4855L20.6391 14.85C20.6271 15.0571 20.5215 15.2474 20.3584 15.3703L20.409 15.4176C20.5658 15.5634 20.6458 15.7699 20.6277 15.9832C20.6156 16.126 20.5603 16.2594 20.4695 16.3682L20.5544 16.4261L20.6446 16.3946C20.9945 16.274 21.3763 16.4311 21.5325 16.7599L21.6499 17.0097C21.7593 17.244 21.7289 17.5172 21.5709 17.7223L21.5315 17.7772C21.569 18.0176 21.4765 18.2603 21.2832 18.4191L20.563 19.0054L20.251 19.2019C20.2555 19.3102 20.2343 19.4192 20.1883 19.5191C20.1118 19.688 19.9648 19.8226 19.786 19.8878L19.1553 20.1162C19.0973 20.1358 19.0528 20.1468 19.0065 20.153L18.5341 20.2191C18.4445 20.2317 18.3499 20.2273 18.2609 20.2055L17.2908 19.9836L16.6451 19.7989C16.6281 19.7941 16.6116 19.7887 16.5955 19.7827C16.4477 19.8011 16.2978 19.7739 16.1667 19.7048L15.9446 19.5844C15.7633 19.6209 15.5737 19.5874 15.4169 19.4893L14.8083 19.8486L14.6168 20.2295L14.803 20.8721C14.8549 21.0531 14.8301 21.2494 14.736 21.4112C14.6446 21.5709 14.4866 21.691 14.3028 21.7403L13.5342 21.9408C13.4795 21.9558 13.4152 21.9642 13.3507 21.9642L13.2484 21.9564L12.6047 21.8439L12.3127 21.9023C12.1604 21.9318 12.0006 21.9128 11.8626 21.8485L11.5188 21.6846C11.3393 21.5993 11.2044 21.4425 11.1468 21.257L10.8649 21.1439L10.7469 21.1188C10.7222 21.1485 10.6952 21.1757 10.6658 21.2011C10.5093 21.3361 10.3012 21.3976 10.0948 21.3684L8.87909 21.2075C8.78253 21.1949 8.69148 21.1635 8.60778 21.1144L8.40219 20.9954H8.09331C7.89712 20.9954 7.70767 20.9151 7.57333 20.7749L7.36489 20.5578L6.66832 20.264C6.52644 20.2041 6.40599 20.0981 6.32943 19.9658L6.18734 19.7208L5.88948 19.5598C5.70288 19.4578 5.57325 19.283 5.53262 19.0793C5.49281 18.8726 5.54712 18.6621 5.68165 18.5011L6.14549 17.9475L6.40272 16.5681C6.40844 16.5368 6.4166 16.506 6.42661 16.4755C6.3868 16.3716 6.37291 16.2596 6.38639 16.1471L6.59912 14.3252C6.60299 14.2916 6.60932 14.2581 6.6181 14.2255C6.56053 14.1244 6.52868 14.0096 6.52705 13.893C6.52419 13.6937 6.60789 13.5029 6.75672 13.3681C6.71916 13.2986 6.69425 13.2263 6.6818 13.1516L6.35393 12.9865C6.25675 12.9376 6.17101 12.8665 6.1065 12.7808L5.54773 12.053C5.48689 11.9737 5.44463 11.8845 5.42197 11.788L5.2562 11.0509L5.25436 11.0425L5.18025 10.9923C5.1186 10.9506 5.06429 10.8999 5.01856 10.8414L4.77787 10.5288L3.43516 10.005H3.0491C2.79636 10.005 2.55995 9.87204 2.43236 9.65773L2.26822 9.38314C2.17839 9.23432 2.15022 9.05586 2.18513 8.88762C2.05672 8.8011 1.95995 8.67832 1.90993 8.53772L1.75477 8.09969C1.63432 7.7588 1.79438 7.38706 2.12715 7.23445L3.14424 6.76878C3.22631 6.73252 3.3045 6.71229 3.38575 6.70568L4.78644 6.58211C5.00754 6.56829 5.21394 6.64319 5.36011 6.7892L5.61939 7.04778L5.6739 7.02675C5.80027 6.97848 5.93623 6.96606 6.06709 6.99049L6.25471 7.02374L6.00136 6.42789L5.8119 5.671C5.76189 5.4679 5.80517 5.2556 5.93092 5.08816C6.05648 4.91952 6.25185 4.81577 6.46662 4.80395L7.0407 4.77531C7.23301 4.75668 7.45043 4.841 7.59885 4.99663L8.09127 5.51557L8.73047 5.63935L8.73721 5.55984C8.76028 5.28224 8.94932 5.04449 9.21901 4.95457L10.4321 4.54638L10.7575 4.25436L10.7112 3.54454C10.7042 3.43017 10.7255 3.31581 10.7724 3.21266L11.026 2.66748C11.1158 2.4746 11.2871 2.3336 11.4957 2.28012L12.6484 1.98549ZM12.4602 3.96423L12.1299 4.045L12.0943 4.11825L12.1495 4.93344C12.1627 5.13386 12.0801 5.32582 11.9227 5.46068L11.2499 6.0392C11.1771 6.10156 11.0933 6.14796 11.0009 6.17707L10.2637 6.41449L10.4911 6.5717L10.2081 6.70713C10.1501 6.86904 10.0257 7.00616 9.86172 7.08448L9.37871 7.3157C9.23771 7.38144 9.07811 7.40248 8.92791 7.37524L7.73769 7.15511C7.73789 7.15717 7.73809 7.15924 7.73829 7.1613L7.79529 7.95977C7.8195 8.30219 7.56569 8.60028 7.20509 8.65343L6.90108 8.69795C6.82248 8.70922 6.74328 8.70847 6.66568 8.69475L6.07687 8.59464L5.77787 8.70471C5.51487 8.80088 5.21826 8.74115 5.02226 8.55294L4.67646 8.22311L3.75304 8.30087L3.71484 8.3174C3.86425 8.4487 3.94385 8.63371 3.93605 8.82267C3.93925 8.82379 3.94245 8.82511 3.94565 8.82624L5.57207 9.43349C5.69587 9.48139 5.79627 9.55389 5.87267 9.64931L6.07907 9.90608C6.21528 9.89556 6.35408 9.92204 6.47528 9.9844L6.87348 10.1893C7.03389 10.2722 7.15329 10.4117 7.20649 10.5742L7.75989 10.8588L7.16489 11.0556C7.09709 11.1846 6.98548 11.2902 6.84868 11.3544L7.19869 11.7906L7.8143 12.0872C8.1009 12.2262 8.2497 12.5282 8.1767 12.8218L8.1699 12.8494L8.3033 13.0861C8.4101 13.2754 8.4103 13.4968 8.3141 13.682L8.3707 13.7264C8.4739 13.8092 8.5485 13.9136 8.58811 14.0297L8.97511 15.1295C9.03351 15.2912 9.01951 15.4704 8.93911 15.6246L9.20171 16.3705L8.4797 15.9728C8.3903 15.9937 8.2975 15.9978 8.2073 15.985C8.1887 16.0468 8.1605 16.1066 8.1229 16.1618L7.8177 16.6131L7.55769 17.9481C7.53649 18.0583 7.48469 18.1626 7.40829 18.2491L7.33229 18.3361C7.34769 18.356 7.36189 18.3771 7.37489 18.3988L7.49449 18.5961L8.0945 18.8384C8.1873 18.8774 8.2627 18.927 8.3275 18.9915L8.4241 19.088H8.61491C8.73811 19.088 8.86011 19.119 8.96731 19.1774L9.21851 19.3168L9.60212 19.3651C9.64012 19.3132 9.68612 19.2663 9.73852 19.2261C9.90372 19.1019 10.1151 19.0538 10.3193 19.0919L11.2995 19.3004L11.9893 19.5634C12.1549 19.6282 12.285 19.7456 12.3588 19.8914L12.392 19.885C12.4378 19.876 12.4852 19.8716 12.5322 19.8716L12.6352 19.8793L13.1416 19.9642L13.092 19.8001C13.0444 19.64 13.0616 19.4717 13.1398 19.3252L13.5362 18.5722C13.5952 18.459 13.6882 18.3643 13.8048 18.2989L14.9694 17.641C15.1748 17.5228 15.4284 17.5149 15.6414 17.615C15.8092 17.5264 16.0004 17.5059 16.1818 17.5555L16.4368 17.6287C16.448 17.6321 16.4592 17.6355 16.4702 17.6395C16.6916 17.5546 16.946 17.5808 17.1442 17.7155L17.5242 17.9744C17.6248 18.0423 17.7038 18.1344 17.7536 18.2398L18.2824 18.3547L18.544 18.32L18.5964 18.3016C18.6218 18.2409 18.657 18.1836 18.7002 18.1325L18.9288 17.8641C18.9794 17.8057 19.0346 17.7595 19.0984 17.7212L19.5394 17.4558L19.7148 17.3175L19.1426 16.9443C18.957 16.8239 18.8446 16.625 18.8418 16.4124L18.8324 15.7756L18.5942 15.5619C18.4568 15.4407 18.3774 15.267 18.3774 15.0865V14.8549C18.3774 14.5902 18.5448 14.353 18.804 14.2495L18.711 14.1452C18.613 14.0337 18.5574 13.9009 18.5492 13.7602L18.5304 13.4694C18.5288 13.4422 18.529 13.4151 18.5306 13.3883C18.4442 13.4452 18.3442 13.4839 18.239 13.4997C18.0524 13.5271 17.8582 13.4822 17.7068 13.3753L17.505 13.2305C17.2594 13.0547 17.1652 12.7427 17.2762 12.4715L17.3826 12.2121L17.4122 11.8781C17.4218 11.7703 17.46 11.6657 17.5224 11.5751L17.9692 10.9341L18.4308 10.3738C18.4198 10.297 18.4232 10.2184 18.4414 10.1424C18.4862 9.95266 18.6172 9.79206 18.8008 9.70209L19.0388 9.58582C19.1176 9.54713 19.2032 9.52328 19.2902 9.51482L19.2784 8.82586C19.277 8.74716 19.2904 8.66959 19.3186 8.5952L19.545 7.981L19.5656 7.76668C19.571 7.71052 19.5842 7.65567 19.6044 7.60271C19.576 7.59256 19.5482 7.58073 19.5216 7.56702L19.3426 7.47648L18.8166 7.5272C18.568 7.54391 18.3476 7.4562 18.2022 7.28809L17.8542 6.88857L17.7488 6.92896C17.5762 6.99601 17.3778 6.99432 17.2056 6.92426L17.0156 6.84706L16.9626 6.85119C16.8062 6.86303 16.6482 6.82433 16.5192 6.74469L15.6586 6.19698C15.6084 6.16524 15.5628 6.12711 15.5232 6.08428C15.4568 6.09067 15.3892 6.08785 15.3228 6.07583L14.8624 5.99656C14.5582 5.94416 14.3238 5.70561 14.2926 5.41635L14.281 5.31042C14.0862 5.27586 13.9114 5.16353 13.8068 4.99693L13.7968 4.98096C13.6872 4.95542 13.5846 4.90508 13.5002 4.83464L13.3288 4.69151C13.2856 4.65526 13.2478 4.61526 13.2158 4.57112C13.0084 4.55553 12.8172 4.45335 12.6958 4.28787L12.4602 3.96423Z" fill="#000091"/>
</svg>
